<svg xmlns="http://www.w3.org/2000/svg" width="24" height="24.001" viewBox="0 0 24 24.001"><defs><style>.a{fill:none;}.b{fill:#ffffff;}</style></defs><path class="a" d="M0,0H24V24H0Z"/><path class="b" d="M22,0H18V6L15,4,12,6V0H8A2,2,0,0,0,6,2V14l4-1,3,3h9a2,2,0,0,0,2-2V2a2,2,0,0,0-2-2Z"/><path class="b" d="M19,18H10.414l.293-.293a1,1,0,0,0,0-1.414l-1-1a1,1,0,0,0-1.078-.221L5,16.523V23H16a1,1,0,0,0,.707-.293l3-3A1,1,0,0,0,19,18Z"/><path class="b" d="M3,15H1a1,1,0,0,0-1,1v7a1,1,0,0,0,1,1H3a1,1,0,0,0,1-1V16a1,1,0,0,0-1-1Z"/></svg>