<svg xmlns="http://www.w3.org/2000/svg" width="24" height="24" viewBox="0 0 24 24"><defs><style>.a{fill:none;}.b{fill:#ffffff;}</style></defs><path class="a" d="M0,0H24V24H0Z"/><path class="b" d="M15.832.448A1,1,0,0,0,15,0H11V6h8.535Z"/><path class="b" d="M19,12a7.026,7.026,0,0,1,1,.08V8H0V19a1,1,0,0,0,1,1H12.08A6.95,6.95,0,0,1,19,12Z"/><path class="b" d="M9,0H5a1,1,0,0,0-.832.446L.465,6H9V0Z"/><path class="b" d="M19,14.585l-4.707,4.707,1.414,1.414L18,18.413V24h2V18.413l2.293,2.293,1.414-1.414Z"/></svg>