<svg version="1.1" xmlns="http://www.w3.org/2000/svg" x="0" y="0" width="24" height="24" viewBox="0 0 24 24" xml:space="preserve" enable-background="new 0 0 24 24"><title>health graph 1</title><g class="nc-icon-wrapper" fill="#ffffff"><path fill="none" id="Frame_-_24px" d="M0 0h24v24.001H0z"/><g id="Line_Icons"><path d="M20 2H4c-1.104 0-2 .898-2 2v16c0 1.103.896 2 2 2h16c1.104 0 2-.897 2-2V4c0-1.102-.896-2-2-2zm0 2v4h-.414L18 9.586l-4.083-4.083-4 5L7 7.586 4.586 10H4V4h16zM4 20v-8h1.414L7 10.415l3.083 3.083 4-5L18 12.415l2-2V20H4z" fill="#ffffff"/><path fill="#ffffff" d="M5 16h2v2.998H5z"/><path fill="#ffffff" d="M9 14h2v4.998H9z"/><path fill="#ffffff" d="M13 16h2v2.998h-2z"/><path fill="#ffffff" d="M17.001 14h2v4.998h-2z"/></g></g></svg>