<svg version="1.1" xmlns="http://www.w3.org/2000/svg" x="0" y="0" width="24" height="24" viewBox="0 0 24 24" xml:space="preserve" enable-background="new 0 0 24 24"><title>health graph 2</title><g class="nc-icon-wrapper" fill="#ff6a12"><path fill="none" id="Frame_-_24px" d="M0 0h24v24.001H0z"/><path d="M20 2H4c-1.104 0-2 .898-2 2v16c0 1.103.896 2 2 2h16c1.104 0 2-.897 2-2V4c0-1.102-.896-2-2-2zm0 2v4h-.414L18 9.586l-4.083-4.083-4 5L7 7.586 4.586 10H4V4h16zM4 12h1.414L7 10.415l3.083 3.083 4-5L18 12.415l2-2V16h-2.52l-2.337-2.921-3.21 2.675L9 13.798 5.697 16H4v-4zm0 8v-2h2.303L9 16.202l3.066 2.044 2.79-2.324L16.52 18H20v2H4z" fill="#ff6a12" id="Line_Icons"/></g></svg>